<svg width="100" height="100" viewBox="0 0 100 100" fill="none" xmlns="http://www.w3.org/2000/svg">
<rect width="100" height="100" rx="50" fill="white"/>
<path d="M33.7635 41.6583L37.5958 37.8342L46.6308 46.8692L62.434 31.0633L66.2663 34.8956L46.6308 54.5256L33.7635 41.6583Z" fill="#2B2B2B"/>
<path d="M74.375 22.9167H25.625C24.1898 22.9209 22.8145 23.493 21.7996 24.5079C20.7847 25.5228 20.2127 26.8981 20.2084 28.3333L20.2192 60.8442C20.2221 62.277 20.7925 63.6503 21.8057 64.6635C22.8189 65.6767 24.1922 66.2471 25.625 66.25H44.5834V71.6667L39.1775 71.6775L39.1667 77.0833H60.8334L60.8442 71.6775L55.4167 71.6667V66.25H74.375C75.8103 66.2457 77.1856 65.6736 78.2005 64.6588C79.2154 63.6439 79.7874 62.2686 79.7917 60.8333V28.3333C79.7874 26.8981 79.2154 25.5228 78.2005 24.5079C77.1856 23.493 75.8103 22.9209 74.375 22.9167ZM74.375 60.8333H25.625V28.3333H74.375V60.8333Z" fill="#2B2B2B"/>
</svg>
