<svg width="100" height="100" viewBox="0 0 100 100" fill="none" xmlns="http://www.w3.org/2000/svg">
<rect width="100" height="100" rx="50" fill="white"/>
<path d="M59.2776 65.2266L57.963 66.6135C57.963 66.6135 54.8339 69.9044 46.296 60.9158C37.7581 51.9272 40.8872 48.6363 40.8872 48.6363L41.7165 47.7608C43.7563 45.6112 43.9499 42.1614 42.1672 39.6419L38.5267 34.4903C36.3193 31.3698 32.0575 30.9595 29.5294 33.6206L24.9961 38.3908C23.745 39.7112 22.9071 41.4188 23.0083 43.3171C23.2683 48.1711 25.3428 58.6101 36.9116 70.7943C49.1824 83.7095 60.6963 84.2238 65.403 83.7586C66.8938 83.6141 68.1882 82.808 69.2313 81.7101L73.3341 77.3877C76.1078 74.4695 75.3277 69.471 71.7796 67.4312L66.2611 64.253C63.9323 62.9152 61.0979 63.3082 59.2776 65.2238" fill="#2B2B2B"/>
<path d="M63.5559 45.893C66.6976 45.8925 69.7534 44.8679 72.2603 42.9744C74.7672 41.081 76.5886 38.422 77.4484 35.4003C78.3082 32.3787 78.1596 29.1591 77.0251 26.2295C75.8906 23.2998 73.832 20.8199 71.1613 19.1655C68.4906 17.5111 65.3534 16.7723 62.225 17.0612C59.0967 17.3501 56.1479 18.6509 53.8253 20.7664C51.5028 22.882 49.9332 25.697 49.3543 28.7848C48.7755 31.8726 49.219 35.065 50.6177 37.8781C50.8813 38.3891 50.9501 38.9786 50.8112 39.5366L49.9502 42.7523C49.865 43.0707 49.865 43.406 49.9504 43.7243C50.0357 44.0427 50.2033 44.333 50.4364 44.5661C50.6695 44.7991 50.9598 44.9668 51.2781 45.0521C51.5965 45.1374 51.9317 45.1375 52.2501 45.0522L55.4659 44.1912C56.0239 44.0524 56.6134 44.1212 57.1244 44.3848C59.123 45.3775 61.3244 45.8938 63.5559 45.893Z" fill="#2B2B2B"/>
</svg>
