<svg width="100" height="100" viewBox="0 0 100 100" fill="none" xmlns="http://www.w3.org/2000/svg">
<rect width="100" height="100" rx="50" fill="white"/>
<path d="M32.5011 58.7488C30.0803 58.7488 27.8928 59.7405 26.3178 61.3155C22.8761 64.7572 20.8345 79.1655 20.8345 79.1655C20.8345 79.1655 35.2428 77.1238 38.6845 73.6822C39.9123 72.4607 40.7495 70.9019 41.0898 69.2036C41.43 67.5054 41.2579 65.7444 40.5953 64.1442C39.9327 62.544 38.8095 61.1767 37.3684 60.2161C35.9272 59.2555 34.2331 58.7448 32.5011 58.7488ZM34.572 69.5697C33.7553 70.3863 28.2428 71.7863 28.2428 71.7863C28.2428 71.7863 29.6136 66.303 30.4595 65.4572C30.9553 64.903 31.6845 64.5822 32.5011 64.5822C33.0786 64.583 33.6429 64.7547 34.1229 65.0757C34.603 65.3966 34.9773 65.8525 35.1987 66.3858C35.4201 66.9191 35.4788 67.506 35.3673 68.0726C35.2557 68.6392 34.979 69.1601 34.572 69.5697ZM65.8095 54.8113C84.3595 36.2613 78.1761 21.8238 78.1761 21.8238C78.1761 21.8238 63.7386 15.6405 45.1886 34.1905L37.9261 32.7322C36.9821 32.5509 36.0081 32.6022 35.0883 32.8817C34.1685 33.1612 33.3306 33.6605 32.647 34.3363L20.8345 46.178L35.4178 52.4197L47.5803 64.5822L53.822 79.1655L65.6345 67.353C67.0053 65.9822 67.6178 63.9988 67.2386 62.0738L65.8095 54.8113ZM36.6136 46.5863L31.0428 44.1947L36.7886 38.4488L40.9886 39.2947C39.3261 41.7155 37.8386 44.253 36.6136 46.5863ZM55.8053 68.9572L53.4136 63.3863C55.747 62.1613 58.2845 60.6738 60.6761 59.0113L61.522 63.2113L55.8053 68.9572ZM61.6678 50.6988C57.8178 54.5488 51.8095 57.6988 49.8845 58.6613L41.3386 50.1155C42.272 48.2197 45.422 42.2113 49.3011 38.3322C62.9511 24.6822 73.3053 26.6947 73.3053 26.6947C73.3053 26.6947 75.3178 37.0488 61.6678 50.6988ZM58.7511 47.0822C61.9595 47.0822 64.5845 44.4572 64.5845 41.2488C64.5845 38.0405 61.9595 35.4155 58.7511 35.4155C55.5428 35.4155 52.9178 38.0405 52.9178 41.2488C52.9178 44.4572 55.5428 47.0822 58.7511 47.0822Z" fill="#2B2B2B"/>
</svg>
